<svg class="rich-terminal" viewBox="0 0 2251 1270.0" xmlns="http://www.w3.org/2000/svg">
    <!-- Generated with Rich https://www.textualize.io -->
    <style>

    @font-face {
        font-family: "Fira Code";
        src: local("FiraCode-Regular"),
                url("https://cdnjs.cloudflare.com/ajax/libs/firacode/6.2.0/woff2/FiraCode-Regular.woff2") format("woff2"),
                url("https://cdnjs.cloudflare.com/ajax/libs/firacode/6.2.0/woff/FiraCode-Regular.woff") format("woff");
        font-style: normal;
        font-weight: 400;
    }
    @font-face {
        font-family: "Fira Code";
        src: local("FiraCode-Bold"),
                url("https://cdnjs.cloudflare.com/ajax/libs/firacode/6.2.0/woff2/FiraCode-Bold.woff2") format("woff2"),
                url("https://cdnjs.cloudflare.com/ajax/libs/firacode/6.2.0/woff/FiraCode-Bold.woff") format("woff");
        font-style: bold;
        font-weight: 700;
    }

    .terminal-1140556112-matrix {
        font-family: Fira Code, monospace;
        font-size: 20px;
        line-height: 24.4px;
        font-variant-east-asian: full-width;
    }

    .terminal-1140556112-title {
        font-size: 18px;
        font-weight: bold;
        font-family: arial;
    }

    .terminal-1140556112-r1 { fill: #c5c8c6 }
.terminal-1140556112-r2 { fill: #e9e2e4 }
.terminal-1140556112-r3 { fill: #dfdfdf }
.terminal-1140556112-r4 { fill: #e6e6e5;font-weight: bold }
.terminal-1140556112-r5 { fill: #e6e6e5 }
.terminal-1140556112-r6 { fill: #14191f }
.terminal-1140556112-r7 { fill: #e4e5e6;font-weight: bold }
.terminal-1140556112-r8 { fill: #e4e5e6 }
.terminal-1140556112-r9 { fill: #dde8f3;font-weight: bold }
.terminal-1140556112-r10 { fill: #ddedf9 }
    </style>

    <defs>
    <clipPath id="terminal-1140556112-clip-terminal">
      <rect x="0" y="0" width="2231.6" height="1219.0" />
    </clipPath>
    <clipPath id="terminal-1140556112-line-0">
    <rect x="0" y="1.5" width="2232.6" height="24.65"/>
            </clipPath>
<clipPath id="terminal-1140556112-line-1">
    <rect x="0" y="25.9" width="2232.6" height="24.65"/>
            </clipPath>
<clipPath id="terminal-1140556112-line-2">
    <rect x="0" y="50.3" width="2232.6" height="24.65"/>
            </clipPath>
<clipPath id="terminal-1140556112-line-3">
    <rect x="0" y="74.7" width="2232.6" height="24.65"/>
            </clipPath>
<clipPath id="terminal-1140556112-line-4">
    <rect x="0" y="99.1" width="2232.6" height="24.65"/>
            </clipPath>
<clipPath id="terminal-1140556112-line-5">
    <rect x="0" y="123.5" width="2232.6" height="24.65"/>
            </clipPath>
<clipPath id="terminal-1140556112-line-6">
    <rect x="0" y="147.9" width="2232.6" height="24.65"/>
            </clipPath>
<clipPath id="terminal-1140556112-line-7">
    <rect x="0" y="172.3" width="2232.6" height="24.65"/>
            </clipPath>
<clipPath id="terminal-1140556112-line-8">
    <rect x="0" y="196.7" width="2232.6" height="24.65"/>
            </clipPath>
<clipPath id="terminal-1140556112-line-9">
    <rect x="0" y="221.1" width="2232.6" height="24.65"/>
            </clipPath>
<clipPath id="terminal-1140556112-line-10">
    <rect x="0" y="245.5" width="2232.6" height="24.65"/>
            </clipPath>
<clipPath id="terminal-1140556112-line-11">
    <rect x="0" y="269.9" width="2232.6" height="24.65"/>
            </clipPath>
<clipPath id="terminal-1140556112-line-12">
    <rect x="0" y="294.3" width="2232.6" height="24.65"/>
            </clipPath>
<clipPath id="terminal-1140556112-line-13">
    <rect x="0" y="318.7" width="2232.6" height="24.65"/>
            </clipPath>
<clipPath id="terminal-1140556112-line-14">
    <rect x="0" y="343.1" width="2232.6" height="24.65"/>
            </clipPath>
<clipPath id="terminal-1140556112-line-15">
    <rect x="0" y="367.5" width="2232.6" height="24.65"/>
            </clipPath>
<clipPath id="terminal-1140556112-line-16">
    <rect x="0" y="391.9" width="2232.6" height="24.65"/>
            </clipPath>
<clipPath id="terminal-1140556112-line-17">
    <rect x="0" y="416.3" width="2232.6" height="24.65"/>
            </clipPath>
<clipPath id="terminal-1140556112-line-18">
    <rect x="0" y="440.7" width="2232.6" height="24.65"/>
            </clipPath>
<clipPath id="terminal-1140556112-line-19">
    <rect x="0" y="465.1" width="2232.6" height="24.65"/>
            </clipPath>
<clipPath id="terminal-1140556112-line-20">
    <rect x="0" y="489.5" width="2232.6" height="24.65"/>
            </clipPath>
<clipPath id="terminal-1140556112-line-21">
    <rect x="0" y="513.9" width="2232.6" height="24.65"/>
            </clipPath>
<clipPath id="terminal-1140556112-line-22">
    <rect x="0" y="538.3" width="2232.6" height="24.65"/>
            </clipPath>
<clipPath id="terminal-1140556112-line-23">
    <rect x="0" y="562.7" width="2232.6" height="24.65"/>
            </clipPath>
<clipPath id="terminal-1140556112-line-24">
    <rect x="0" y="587.1" width="2232.6" height="24.65"/>
            </clipPath>
<clipPath id="terminal-1140556112-line-25">
    <rect x="0" y="611.5" width="2232.6" height="24.65"/>
            </clipPath>
<clipPath id="terminal-1140556112-line-26">
    <rect x="0" y="635.9" width="2232.6" height="24.65"/>
            </clipPath>
<clipPath id="terminal-1140556112-line-27">
    <rect x="0" y="660.3" width="2232.6" height="24.65"/>
            </clipPath>
<clipPath id="terminal-1140556112-line-28">
    <rect x="0" y="684.7" width="2232.6" height="24.65"/>
            </clipPath>
<clipPath id="terminal-1140556112-line-29">
    <rect x="0" y="709.1" width="2232.6" height="24.65"/>
            </clipPath>
<clipPath id="terminal-1140556112-line-30">
    <rect x="0" y="733.5" width="2232.6" height="24.65"/>
            </clipPath>
<clipPath id="terminal-1140556112-line-31">
    <rect x="0" y="757.9" width="2232.6" height="24.65"/>
            </clipPath>
<clipPath id="terminal-1140556112-line-32">
    <rect x="0" y="782.3" width="2232.6" height="24.65"/>
            </clipPath>
<clipPath id="terminal-1140556112-line-33">
    <rect x="0" y="806.7" width="2232.6" height="24.65"/>
            </clipPath>
<clipPath id="terminal-1140556112-line-34">
    <rect x="0" y="831.1" width="2232.6" height="24.65"/>
            </clipPath>
<clipPath id="terminal-1140556112-line-35">
    <rect x="0" y="855.5" width="2232.6" height="24.65"/>
            </clipPath>
<clipPath id="terminal-1140556112-line-36">
    <rect x="0" y="879.9" width="2232.6" height="24.65"/>
            </clipPath>
<clipPath id="terminal-1140556112-line-37">
    <rect x="0" y="904.3" width="2232.6" height="24.65"/>
            </clipPath>
<clipPath id="terminal-1140556112-line-38">
    <rect x="0" y="928.7" width="2232.6" height="24.65"/>
            </clipPath>
<clipPath id="terminal-1140556112-line-39">
    <rect x="0" y="953.1" width="2232.6" height="24.65"/>
            </clipPath>
<clipPath id="terminal-1140556112-line-40">
    <rect x="0" y="977.5" width="2232.6" height="24.65"/>
            </clipPath>
<clipPath id="terminal-1140556112-line-41">
    <rect x="0" y="1001.9" width="2232.6" height="24.65"/>
            </clipPath>
<clipPath id="terminal-1140556112-line-42">
    <rect x="0" y="1026.3" width="2232.6" height="24.65"/>
            </clipPath>
<clipPath id="terminal-1140556112-line-43">
    <rect x="0" y="1050.7" width="2232.6" height="24.65"/>
            </clipPath>
<clipPath id="terminal-1140556112-line-44">
    <rect x="0" y="1075.1" width="2232.6" height="24.65"/>
            </clipPath>
<clipPath id="terminal-1140556112-line-45">
    <rect x="0" y="1099.5" width="2232.6" height="24.65"/>
            </clipPath>
<clipPath id="terminal-1140556112-line-46">
    <rect x="0" y="1123.9" width="2232.6" height="24.65"/>
            </clipPath>
<clipPath id="terminal-1140556112-line-47">
    <rect x="0" y="1148.3" width="2232.6" height="24.65"/>
            </clipPath>
<clipPath id="terminal-1140556112-line-48">
    <rect x="0" y="1172.7" width="2232.6" height="24.65"/>
            </clipPath>
    </defs>

    <rect fill="#292929" stroke="rgba(255,255,255,0.35)" stroke-width="1" x="1" y="1" width="2249" height="1268" rx="8"/><text class="terminal-1140556112-title" fill="#c5c8c6" text-anchor="middle" x="1124" y="27">Archive&#160;Reader</text>
            <g transform="translate(26,22)">
            <circle cx="0" cy="0" r="7" fill="#ff5f57"/>
            <circle cx="22" cy="0" r="7" fill="#febc2e"/>
            <circle cx="44" cy="0" r="7" fill="#28c840"/>
            </g>
        
    <g transform="translate(9, 41)" clip-path="url(#terminal-1140556112-clip-terminal)">
    <rect fill="#5b2031" x="0" y="1.5" width="2232.6" height="24.65" shape-rendering="crispEdges"/><rect fill="#5b2031" x="0" y="25.9" width="768.6" height="24.65" shape-rendering="crispEdges"/><rect fill="#5b2031" x="768.6" y="25.9" width="683.2" height="24.65" shape-rendering="crispEdges"/><rect fill="#5b2031" x="1451.8" y="25.9" width="780.8" height="24.65" shape-rendering="crispEdges"/><rect fill="#5b2031" x="0" y="50.3" width="2232.6" height="24.65" shape-rendering="crispEdges"/><rect fill="#0d0d0d" x="0" y="74.7" width="2208.2" height="24.65" shape-rendering="crispEdges"/><rect fill="#23568b" x="2208.2" y="74.7" width="24.4" height="24.65" shape-rendering="crispEdges"/><rect fill="#0d0d0d" x="0" y="99.1" width="12.2" height="24.65" shape-rendering="crispEdges"/><rect fill="#46423c" x="12.2" y="99.1" width="195.2" height="24.65" shape-rendering="crispEdges"/><rect fill="#46423c" x="207.4" y="99.1" width="1988.6" height="24.65" shape-rendering="crispEdges"/><rect fill="#0d0d0d" x="2196" y="99.1" width="12.2" height="24.65" shape-rendering="crispEdges"/><rect fill="#23568b" x="2208.2" y="99.1" width="24.4" height="24.65" shape-rendering="crispEdges"/><rect fill="#0d0d0d" x="0" y="123.5" width="12.2" height="24.65" shape-rendering="crispEdges"/><rect fill="#46423c" x="12.2" y="123.5" width="317.2" height="24.65" shape-rendering="crispEdges"/><rect fill="#46423c" x="329.4" y="123.5" width="1866.6" height="24.65" shape-rendering="crispEdges"/><rect fill="#0d0d0d" x="2196" y="123.5" width="12.2" height="24.65" shape-rendering="crispEdges"/><rect fill="#23568b" x="2208.2" y="123.5" width="24.4" height="24.65" shape-rendering="crispEdges"/><rect fill="#0d0d0d" x="0" y="147.9" width="12.2" height="24.65" shape-rendering="crispEdges"/><rect fill="#46423c" x="12.2" y="147.9" width="0" height="24.65" shape-rendering="crispEdges"/><rect fill="#46423c" x="12.2" y="147.9" width="2183.8" height="24.65" shape-rendering="crispEdges"/><rect fill="#0d0d0d" x="2196" y="147.9" width="12.2" height="24.65" shape-rendering="crispEdges"/><rect fill="#23568b" x="2208.2" y="147.9" width="24.4" height="24.65" shape-rendering="crispEdges"/><rect fill="#0d0d0d" x="0" y="172.3" width="12.2" height="24.65" shape-rendering="crispEdges"/><rect fill="#46423c" x="12.2" y="172.3" width="48.8" height="24.65" shape-rendering="crispEdges"/><rect fill="#46423c" x="61" y="172.3" width="2135" height="24.65" shape-rendering="crispEdges"/><rect fill="#0d0d0d" x="2196" y="172.3" width="12.2" height="24.65" shape-rendering="crispEdges"/><rect fill="#23568b" x="2208.2" y="172.3" width="24.4" height="24.65" shape-rendering="crispEdges"/><rect fill="#0d0d0d" x="0" y="196.7" width="12.2" height="24.65" shape-rendering="crispEdges"/><rect fill="#46423c" x="12.2" y="196.7" width="2183.8" height="24.65" shape-rendering="crispEdges"/><rect fill="#0d0d0d" x="2196" y="196.7" width="12.2" height="24.65" shape-rendering="crispEdges"/><rect fill="#23568b" x="2208.2" y="196.7" width="24.4" height="24.65" shape-rendering="crispEdges"/><rect fill="#0d0d0d" x="0" y="221.1" width="12.2" height="24.65" shape-rendering="crispEdges"/><rect fill="#46423c" x="12.2" y="221.1" width="866.2" height="24.65" shape-rendering="crispEdges"/><rect fill="#46423c" x="878.4" y="221.1" width="1317.6" height="24.65" shape-rendering="crispEdges"/><rect fill="#0d0d0d" x="2196" y="221.1" width="12.2" height="24.65" shape-rendering="crispEdges"/><rect fill="#23568b" x="2208.2" y="221.1" width="24.4" height="24.65" shape-rendering="crispEdges"/><rect fill="#0d0d0d" x="0" y="245.5" width="12.2" height="24.65" shape-rendering="crispEdges"/><rect fill="#46423c" x="12.2" y="245.5" width="817.4" height="24.65" shape-rendering="crispEdges"/><rect fill="#46423c" x="829.6" y="245.5" width="1366.4" height="24.65" shape-rendering="crispEdges"/><rect fill="#0d0d0d" x="2196" y="245.5" width="12.2" height="24.65" shape-rendering="crispEdges"/><rect fill="#23568b" x="2208.2" y="245.5" width="24.4" height="24.65" shape-rendering="crispEdges"/><rect fill="#0d0d0d" x="0" y="269.9" width="12.2" height="24.65" shape-rendering="crispEdges"/><rect fill="#46423c" x="12.2" y="269.9" width="97.6" height="24.65" shape-rendering="crispEdges"/><rect fill="#46423c" x="109.8" y="269.9" width="2086.2" height="24.65" shape-rendering="crispEdges"/><rect fill="#0d0d0d" x="2196" y="269.9" width="12.2" height="24.65" shape-rendering="crispEdges"/><rect fill="#23568b" x="2208.2" y="269.9" width="24.4" height="24.65" shape-rendering="crispEdges"/><rect fill="#0d0d0d" x="0" y="294.3" width="12.2" height="24.65" shape-rendering="crispEdges"/><rect fill="#46423c" x="12.2" y="294.3" width="2183.8" height="24.65" shape-rendering="crispEdges"/><rect fill="#0d0d0d" x="2196" y="294.3" width="12.2" height="24.65" shape-rendering="crispEdges"/><rect fill="#23568b" x="2208.2" y="294.3" width="24.4" height="24.65" shape-rendering="crispEdges"/><rect fill="#0d0d0d" x="0" y="318.7" width="12.2" height="24.65" shape-rendering="crispEdges"/><rect fill="#46423c" x="12.2" y="318.7" width="817.4" height="24.65" shape-rendering="crispEdges"/><rect fill="#46423c" x="829.6" y="318.7" width="1366.4" height="24.65" shape-rendering="crispEdges"/><rect fill="#0d0d0d" x="2196" y="318.7" width="12.2" height="24.65" shape-rendering="crispEdges"/><rect fill="#23568b" x="2208.2" y="318.7" width="24.4" height="24.65" shape-rendering="crispEdges"/><rect fill="#0d0d0d" x="0" y="343.1" width="12.2" height="24.65" shape-rendering="crispEdges"/><rect fill="#46423c" x="12.2" y="343.1" width="841.8" height="24.65" shape-rendering="crispEdges"/><rect fill="#46423c" x="854" y="343.1" width="1342" height="24.65" shape-rendering="crispEdges"/><rect fill="#0d0d0d" x="2196" y="343.1" width="12.2" height="24.65" shape-rendering="crispEdges"/><rect fill="#14191f" x="2208.2" y="343.1" width="24.4" height="24.65" shape-rendering="crispEdges"/><rect fill="#0d0d0d" x="0" y="367.5" width="12.2" height="24.65" shape-rendering="crispEdges"/><rect fill="#46423c" x="12.2" y="367.5" width="2183.8" height="24.65" shape-rendering="crispEdges"/><rect fill="#0d0d0d" x="2196" y="367.5" width="12.2" height="24.65" shape-rendering="crispEdges"/><rect fill="#14191f" x="2208.2" y="367.5" width="24.4" height="24.65" shape-rendering="crispEdges"/><rect fill="#0d0d0d" x="0" y="391.9" width="12.2" height="24.65" shape-rendering="crispEdges"/><rect fill="#46423c" x="12.2" y="391.9" width="427" height="24.65" shape-rendering="crispEdges"/><rect fill="#46423c" x="439.2" y="391.9" width="1756.8" height="24.65" shape-rendering="crispEdges"/><rect fill="#0d0d0d" x="2196" y="391.9" width="12.2" height="24.65" shape-rendering="crispEdges"/><rect fill="#14191f" x="2208.2" y="391.9" width="24.4" height="24.65" shape-rendering="crispEdges"/><rect fill="#0d0d0d" x="0" y="416.3" width="12.2" height="24.65" shape-rendering="crispEdges"/><rect fill="#46423c" x="12.2" y="416.3" width="2183.8" height="24.65" shape-rendering="crispEdges"/><rect fill="#0d0d0d" x="2196" y="416.3" width="12.2" height="24.65" shape-rendering="crispEdges"/><rect fill="#14191f" x="2208.2" y="416.3" width="24.4" height="24.65" shape-rendering="crispEdges"/><rect fill="#0d0d0d" x="0" y="440.7" width="12.2" height="24.65" shape-rendering="crispEdges"/><rect fill="#46423c" x="12.2" y="440.7" width="2183.8" height="24.65" shape-rendering="crispEdges"/><rect fill="#0d0d0d" x="2196" y="440.7" width="12.2" height="24.65" shape-rendering="crispEdges"/><rect fill="#14191f" x="2208.2" y="440.7" width="24.4" height="24.65" shape-rendering="crispEdges"/><rect fill="#0d0d0d" x="0" y="465.1" width="12.2" height="24.65" shape-rendering="crispEdges"/><rect fill="#46423c" x="12.2" y="465.1" width="36.6" height="24.65" shape-rendering="crispEdges"/><rect fill="#46423c" x="48.8" y="465.1" width="2147.2" height="24.65" shape-rendering="crispEdges"/><rect fill="#0d0d0d" x="2196" y="465.1" width="12.2" height="24.65" shape-rendering="crispEdges"/><rect fill="#14191f" x="2208.2" y="465.1" width="24.4" height="24.65" shape-rendering="crispEdges"/><rect fill="#0d0d0d" x="0" y="489.5" width="12.2" height="24.65" shape-rendering="crispEdges"/><rect fill="#46423c" x="12.2" y="489.5" width="317.2" height="24.65" shape-rendering="crispEdges"/><rect fill="#46423c" x="329.4" y="489.5" width="1866.6" height="24.65" shape-rendering="crispEdges"/><rect fill="#0d0d0d" x="2196" y="489.5" width="12.2" height="24.65" shape-rendering="crispEdges"/><rect fill="#14191f" x="2208.2" y="489.5" width="24.4" height="24.65" shape-rendering="crispEdges"/><rect fill="#0d0d0d" x="0" y="513.9" width="12.2" height="24.65" shape-rendering="crispEdges"/><rect fill="#46423c" x="12.2" y="513.9" width="280.6" height="24.65" shape-rendering="crispEdges"/><rect fill="#46423c" x="292.8" y="513.9" width="1903.2" height="24.65" shape-rendering="crispEdges"/><rect fill="#0d0d0d" x="2196" y="513.9" width="12.2" height="24.65" shape-rendering="crispEdges"/><rect fill="#14191f" x="2208.2" y="513.9" width="24.4" height="24.65" shape-rendering="crispEdges"/><rect fill="#0d0d0d" x="0" y="538.3" width="12.2" height="24.65" shape-rendering="crispEdges"/><rect fill="#46423c" x="12.2" y="538.3" width="2183.8" height="24.65" shape-rendering="crispEdges"/><rect fill="#0d0d0d" x="2196" y="538.3" width="12.2" height="24.65" shape-rendering="crispEdges"/><rect fill="#14191f" x="2208.2" y="538.3" width="24.4" height="24.65" shape-rendering="crispEdges"/><rect fill="#0d0d0d" x="0" y="562.7" width="12.2" height="24.65" shape-rendering="crispEdges"/><rect fill="#46423c" x="12.2" y="562.7" width="2183.8" height="24.65" shape-rendering="crispEdges"/><rect fill="#0d0d0d" x="2196" y="562.7" width="12.2" height="24.65" shape-rendering="crispEdges"/><rect fill="#14191f" x="2208.2" y="562.7" width="24.4" height="24.65" shape-rendering="crispEdges"/><rect fill="#0d0d0d" x="0" y="587.1" width="2208.2" height="24.65" shape-rendering="crispEdges"/><rect fill="#14191f" x="2208.2" y="587.1" width="24.4" height="24.65" shape-rendering="crispEdges"/><rect fill="#0d0d0d" x="0" y="611.5" width="12.2" height="24.65" shape-rendering="crispEdges"/><rect fill="#34393f" x="12.2" y="611.5" width="207.4" height="24.65" shape-rendering="crispEdges"/><rect fill="#34393f" x="219.6" y="611.5" width="1976.4" height="24.65" shape-rendering="crispEdges"/><rect fill="#0d0d0d" x="2196" y="611.5" width="12.2" height="24.65" shape-rendering="crispEdges"/><rect fill="#14191f" x="2208.2" y="611.5" width="24.4" height="24.65" shape-rendering="crispEdges"/><rect fill="#0d0d0d" x="0" y="635.9" width="12.2" height="24.65" shape-rendering="crispEdges"/><rect fill="#34393f" x="12.2" y="635.9" width="317.2" height="24.65" shape-rendering="crispEdges"/><rect fill="#34393f" x="329.4" y="635.9" width="1866.6" height="24.65" shape-rendering="crispEdges"/><rect fill="#0d0d0d" x="2196" y="635.9" width="12.2" height="24.65" shape-rendering="crispEdges"/><rect fill="#14191f" x="2208.2" y="635.9" width="24.4" height="24.65" shape-rendering="crispEdges"/><rect fill="#0d0d0d" x="0" y="660.3" width="12.2" height="24.65" shape-rendering="crispEdges"/><rect fill="#34393f" x="12.2" y="660.3" width="0" height="24.65" shape-rendering="crispEdges"/><rect fill="#34393f" x="12.2" y="660.3" width="2183.8" height="24.65" shape-rendering="crispEdges"/><rect fill="#0d0d0d" x="2196" y="660.3" width="12.2" height="24.65" shape-rendering="crispEdges"/><rect fill="#14191f" x="2208.2" y="660.3" width="24.4" height="24.65" shape-rendering="crispEdges"/><rect fill="#0d0d0d" x="0" y="684.7" width="12.2" height="24.65" shape-rendering="crispEdges"/><rect fill="#34393f" x="12.2" y="684.7" width="439.2" height="24.65" shape-rendering="crispEdges"/><rect fill="#34393f" x="451.4" y="684.7" width="1744.6" height="24.65" shape-rendering="crispEdges"/><rect fill="#0d0d0d" x="2196" y="684.7" width="12.2" height="24.65" shape-rendering="crispEdges"/><rect fill="#14191f" x="2208.2" y="684.7" width="24.4" height="24.65" shape-rendering="crispEdges"/><rect fill="#0d0d0d" x="0" y="709.1" width="12.2" height="24.65" shape-rendering="crispEdges"/><rect fill="#34393f" x="12.2" y="709.1" width="73.2" height="24.65" shape-rendering="crispEdges"/><rect fill="#34393f" x="85.4" y="709.1" width="2110.6" height="24.65" shape-rendering="crispEdges"/><rect fill="#0d0d0d" x="2196" y="709.1" width="12.2" height="24.65" shape-rendering="crispEdges"/><rect fill="#14191f" x="2208.2" y="709.1" width="24.4" height="24.65" shape-rendering="crispEdges"/><rect fill="#0d0d0d" x="0" y="733.5" width="12.2" height="24.65" shape-rendering="crispEdges"/><rect fill="#34393f" x="12.2" y="733.5" width="24.4" height="24.65" shape-rendering="crispEdges"/><rect fill="#34393f" x="36.6" y="733.5" width="2159.4" height="24.65" shape-rendering="crispEdges"/><rect fill="#0d0d0d" x="2196" y="733.5" width="12.2" height="24.65" shape-rendering="crispEdges"/><rect fill="#14191f" x="2208.2" y="733.5" width="24.4" height="24.65" shape-rendering="crispEdges"/><rect fill="#0d0d0d" x="0" y="757.9" width="12.2" height="24.65" shape-rendering="crispEdges"/><rect fill="#34393f" x="12.2" y="757.9" width="890.6" height="24.65" shape-rendering="crispEdges"/><rect fill="#34393f" x="902.8" y="757.9" width="1293.2" height="24.65" shape-rendering="crispEdges"/><rect fill="#0d0d0d" x="2196" y="757.9" width="12.2" height="24.65" shape-rendering="crispEdges"/><rect fill="#14191f" x="2208.2" y="757.9" width="24.4" height="24.65" shape-rendering="crispEdges"/><rect fill="#0d0d0d" x="0" y="782.3" width="12.2" height="24.65" shape-rendering="crispEdges"/><rect fill="#34393f" x="12.2" y="782.3" width="841.8" height="24.65" shape-rendering="crispEdges"/><rect fill="#34393f" x="854" y="782.3" width="1342" height="24.65" shape-rendering="crispEdges"/><rect fill="#0d0d0d" x="2196" y="782.3" width="12.2" height="24.65" shape-rendering="crispEdges"/><rect fill="#14191f" x="2208.2" y="782.3" width="24.4" height="24.65" shape-rendering="crispEdges"/><rect fill="#0d0d0d" x="0" y="806.7" width="12.2" height="24.65" shape-rendering="crispEdges"/><rect fill="#34393f" x="12.2" y="806.7" width="122" height="24.65" shape-rendering="crispEdges"/><rect fill="#34393f" x="134.2" y="806.7" width="2061.8" height="24.65" shape-rendering="crispEdges"/><rect fill="#0d0d0d" x="2196" y="806.7" width="12.2" height="24.65" shape-rendering="crispEdges"/><rect fill="#14191f" x="2208.2" y="806.7" width="24.4" height="24.65" shape-rendering="crispEdges"/><rect fill="#0d0d0d" x="0" y="831.1" width="12.2" height="24.65" shape-rendering="crispEdges"/><rect fill="#34393f" x="12.2" y="831.1" width="2183.8" height="24.65" shape-rendering="crispEdges"/><rect fill="#0d0d0d" x="2196" y="831.1" width="12.2" height="24.65" shape-rendering="crispEdges"/><rect fill="#14191f" x="2208.2" y="831.1" width="24.4" height="24.65" shape-rendering="crispEdges"/><rect fill="#0d0d0d" x="0" y="855.5" width="12.2" height="24.65" shape-rendering="crispEdges"/><rect fill="#34393f" x="12.2" y="855.5" width="2183.8" height="24.65" shape-rendering="crispEdges"/><rect fill="#0d0d0d" x="2196" y="855.5" width="12.2" height="24.65" shape-rendering="crispEdges"/><rect fill="#14191f" x="2208.2" y="855.5" width="24.4" height="24.65" shape-rendering="crispEdges"/><rect fill="#0d0d0d" x="0" y="879.9" width="12.2" height="24.65" shape-rendering="crispEdges"/><rect fill="#34393f" x="12.2" y="879.9" width="805.2" height="24.65" shape-rendering="crispEdges"/><rect fill="#34393f" x="817.4" y="879.9" width="1378.6" height="24.65" shape-rendering="crispEdges"/><rect fill="#0d0d0d" x="2196" y="879.9" width="12.2" height="24.65" shape-rendering="crispEdges"/><rect fill="#14191f" x="2208.2" y="879.9" width="24.4" height="24.65" shape-rendering="crispEdges"/><rect fill="#0d0d0d" x="0" y="904.3" width="12.2" height="24.65" shape-rendering="crispEdges"/><rect fill="#34393f" x="12.2" y="904.3" width="829.6" height="24.65" shape-rendering="crispEdges"/><rect fill="#34393f" x="841.8" y="904.3" width="1354.2" height="24.65" shape-rendering="crispEdges"/><rect fill="#0d0d0d" x="2196" y="904.3" width="12.2" height="24.65" shape-rendering="crispEdges"/><rect fill="#14191f" x="2208.2" y="904.3" width="24.4" height="24.65" shape-rendering="crispEdges"/><rect fill="#0d0d0d" x="0" y="928.7" width="12.2" height="24.65" shape-rendering="crispEdges"/><rect fill="#34393f" x="12.2" y="928.7" width="597.8" height="24.65" shape-rendering="crispEdges"/><rect fill="#34393f" x="610" y="928.7" width="1586" height="24.65" shape-rendering="crispEdges"/><rect fill="#0d0d0d" x="2196" y="928.7" width="12.2" height="24.65" shape-rendering="crispEdges"/><rect fill="#14191f" x="2208.2" y="928.7" width="24.4" height="24.65" shape-rendering="crispEdges"/><rect fill="#0d0d0d" x="0" y="953.1" width="12.2" height="24.65" shape-rendering="crispEdges"/><rect fill="#34393f" x="12.2" y="953.1" width="2183.8" height="24.65" shape-rendering="crispEdges"/><rect fill="#0d0d0d" x="2196" y="953.1" width="12.2" height="24.65" shape-rendering="crispEdges"/><rect fill="#14191f" x="2208.2" y="953.1" width="24.4" height="24.65" shape-rendering="crispEdges"/><rect fill="#0d0d0d" x="0" y="977.5" width="12.2" height="24.65" shape-rendering="crispEdges"/><rect fill="#34393f" x="12.2" y="977.5" width="536.8" height="24.65" shape-rendering="crispEdges"/><rect fill="#34393f" x="549" y="977.5" width="1647" height="24.65" shape-rendering="crispEdges"/><rect fill="#0d0d0d" x="2196" y="977.5" width="12.2" height="24.65" shape-rendering="crispEdges"/><rect fill="#14191f" x="2208.2" y="977.5" width="24.4" height="24.65" shape-rendering="crispEdges"/><rect fill="#0d0d0d" x="0" y="1001.9" width="12.2" height="24.65" shape-rendering="crispEdges"/><rect fill="#34393f" x="12.2" y="1001.9" width="36.6" height="24.65" shape-rendering="crispEdges"/><rect fill="#34393f" x="48.8" y="1001.9" width="2147.2" height="24.65" shape-rendering="crispEdges"/><rect fill="#0d0d0d" x="2196" y="1001.9" width="12.2" height="24.65" shape-rendering="crispEdges"/><rect fill="#14191f" x="2208.2" y="1001.9" width="24.4" height="24.65" shape-rendering="crispEdges"/><rect fill="#0d0d0d" x="0" y="1026.3" width="12.2" height="24.65" shape-rendering="crispEdges"/><rect fill="#34393f" x="12.2" y="1026.3" width="878.4" height="24.65" shape-rendering="crispEdges"/><rect fill="#34393f" x="890.6" y="1026.3" width="1305.4" height="24.65" shape-rendering="crispEdges"/><rect fill="#0d0d0d" x="2196" y="1026.3" width="12.2" height="24.65" shape-rendering="crispEdges"/><rect fill="#14191f" x="2208.2" y="1026.3" width="24.4" height="24.65" shape-rendering="crispEdges"/><rect fill="#0d0d0d" x="0" y="1050.7" width="12.2" height="24.65" shape-rendering="crispEdges"/><rect fill="#34393f" x="12.2" y="1050.7" width="427" height="24.65" shape-rendering="crispEdges"/><rect fill="#34393f" x="439.2" y="1050.7" width="1756.8" height="24.65" shape-rendering="crispEdges"/><rect fill="#0d0d0d" x="2196" y="1050.7" width="12.2" height="24.65" shape-rendering="crispEdges"/><rect fill="#14191f" x="2208.2" y="1050.7" width="24.4" height="24.65" shape-rendering="crispEdges"/><rect fill="#0d0d0d" x="0" y="1075.1" width="12.2" height="24.65" shape-rendering="crispEdges"/><rect fill="#34393f" x="12.2" y="1075.1" width="427" height="24.65" shape-rendering="crispEdges"/><rect fill="#34393f" x="439.2" y="1075.1" width="1756.8" height="24.65" shape-rendering="crispEdges"/><rect fill="#0d0d0d" x="2196" y="1075.1" width="12.2" height="24.65" shape-rendering="crispEdges"/><rect fill="#14191f" x="2208.2" y="1075.1" width="24.4" height="24.65" shape-rendering="crispEdges"/><rect fill="#0d0d0d" x="0" y="1099.5" width="12.2" height="24.65" shape-rendering="crispEdges"/><rect fill="#34393f" x="12.2" y="1099.5" width="427" height="24.65" shape-rendering="crispEdges"/><rect fill="#34393f" x="439.2" y="1099.5" width="1756.8" height="24.65" shape-rendering="crispEdges"/><rect fill="#0d0d0d" x="2196" y="1099.5" width="12.2" height="24.65" shape-rendering="crispEdges"/><rect fill="#14191f" x="2208.2" y="1099.5" width="24.4" height="24.65" shape-rendering="crispEdges"/><rect fill="#0d0d0d" x="0" y="1123.9" width="12.2" height="24.65" shape-rendering="crispEdges"/><rect fill="#34393f" x="12.2" y="1123.9" width="488" height="24.65" shape-rendering="crispEdges"/><rect fill="#34393f" x="500.2" y="1123.9" width="1695.8" height="24.65" shape-rendering="crispEdges"/><rect fill="#0d0d0d" x="2196" y="1123.9" width="12.2" height="24.65" shape-rendering="crispEdges"/><rect fill="#14191f" x="2208.2" y="1123.9" width="24.4" height="24.65" shape-rendering="crispEdges"/><rect fill="#0d0d0d" x="0" y="1148.3" width="12.2" height="24.65" shape-rendering="crispEdges"/><rect fill="#34393f" x="12.2" y="1148.3" width="793" height="24.65" shape-rendering="crispEdges"/><rect fill="#34393f" x="805.2" y="1148.3" width="1390.8" height="24.65" shape-rendering="crispEdges"/><rect fill="#0d0d0d" x="2196" y="1148.3" width="12.2" height="24.65" shape-rendering="crispEdges"/><rect fill="#14191f" x="2208.2" y="1148.3" width="24.4" height="24.65" shape-rendering="crispEdges"/><rect fill="#0d0d0d" x="0" y="1172.7" width="12.2" height="24.65" shape-rendering="crispEdges"/><rect fill="#34393f" x="12.2" y="1172.7" width="902.8" height="24.65" shape-rendering="crispEdges"/><rect fill="#34393f" x="915" y="1172.7" width="1281" height="24.65" shape-rendering="crispEdges"/><rect fill="#0d0d0d" x="2196" y="1172.7" width="12.2" height="24.65" shape-rendering="crispEdges"/><rect fill="#14191f" x="2208.2" y="1172.7" width="24.4" height="24.65" shape-rendering="crispEdges"/><rect fill="#0053aa" x="0" y="1197.1" width="36.6" height="24.65" shape-rendering="crispEdges"/><rect fill="#0178d4" x="36.6" y="1197.1" width="207.4" height="24.65" shape-rendering="crispEdges"/><rect fill="#0053aa" x="244" y="1197.1" width="36.6" height="24.65" shape-rendering="crispEdges"/><rect fill="#0178d4" x="280.6" y="1197.1" width="219.6" height="24.65" shape-rendering="crispEdges"/><rect fill="#0053aa" x="500.2" y="1197.1" width="36.6" height="24.65" shape-rendering="crispEdges"/><rect fill="#0178d4" x="536.8" y="1197.1" width="146.4" height="24.65" shape-rendering="crispEdges"/><rect fill="#0053aa" x="683.2" y="1197.1" width="36.6" height="24.65" shape-rendering="crispEdges"/><rect fill="#0178d4" x="719.8" y="1197.1" width="73.2" height="24.65" shape-rendering="crispEdges"/><rect fill="#0053aa" x="793" y="1197.1" width="61" height="24.65" shape-rendering="crispEdges"/><rect fill="#0178d4" x="854" y="1197.1" width="170.8" height="24.65" shape-rendering="crispEdges"/><rect fill="#0178d4" x="1024.8" y="1197.1" width="1207.8" height="24.65" shape-rendering="crispEdges"/>
    <g class="terminal-1140556112-matrix">
    <text class="terminal-1140556112-r1" x="2232.6" y="20" textLength="12.2" clip-path="url(#terminal-1140556112-line-0)">
</text><text class="terminal-1140556112-r2" x="768.6" y="44.4" textLength="683.2" clip-path="url(#terminal-1140556112-line-1)">[MM3-users]&#160;where&#160;do&#160;I&#160;find&#160;the&#160;text&#160;of&#160;a&#160;bounce&#160;email&#160;?</text><text class="terminal-1140556112-r1" x="2232.6" y="44.4" textLength="12.2" clip-path="url(#terminal-1140556112-line-1)">
</text><text class="terminal-1140556112-r1" x="2232.6" y="68.8" textLength="12.2" clip-path="url(#terminal-1140556112-line-2)">
</text><text class="terminal-1140556112-r1" x="2232.6" y="93.2" textLength="12.2" clip-path="url(#terminal-1140556112-line-3)">
</text><text class="terminal-1140556112-r4" x="12.2" y="117.6" textLength="195.2" clip-path="url(#terminal-1140556112-line-4)">From:&#160;Per&#160;Jessen</text><text class="terminal-1140556112-r1" x="2232.6" y="117.6" textLength="12.2" clip-path="url(#terminal-1140556112-line-4)">
</text><text class="terminal-1140556112-r4" x="12.2" y="142" textLength="317.2" clip-path="url(#terminal-1140556112-line-5)">Date:&#160;2021-03-09T09:59:25Z</text><text class="terminal-1140556112-r1" x="2232.6" y="142" textLength="12.2" clip-path="url(#terminal-1140556112-line-5)">
</text><text class="terminal-1140556112-r1" x="2232.6" y="166.4" textLength="12.2" clip-path="url(#terminal-1140556112-line-6)">
</text><text class="terminal-1140556112-r5" x="12.2" y="190.8" textLength="48.8" clip-path="url(#terminal-1140556112-line-7)">All,</text><text class="terminal-1140556112-r1" x="2232.6" y="190.8" textLength="12.2" clip-path="url(#terminal-1140556112-line-7)">
</text><text class="terminal-1140556112-r1" x="2232.6" y="215.2" textLength="12.2" clip-path="url(#terminal-1140556112-line-8)">
</text><text class="terminal-1140556112-r5" x="12.2" y="239.6" textLength="866.2" clip-path="url(#terminal-1140556112-line-9)">I&#160;am&#160;trying&#160;to&#160;figure&#160;why&#160;a&#160;particular&#160;outbound&#160;message&#160;was&#160;bounced,&#160;so</text><text class="terminal-1140556112-r1" x="2232.6" y="239.6" textLength="12.2" clip-path="url(#terminal-1140556112-line-9)">
</text><text class="terminal-1140556112-r5" x="12.2" y="264" textLength="817.4" clip-path="url(#terminal-1140556112-line-10)">I&#x27;m&#160;looking&#160;for&#160;the&#160;text&#160;of&#160;the&#160;NDR&#160;that&#160;was&#160;sent&#160;-&#160;where&#160;do&#160;I&#160;find</text><text class="terminal-1140556112-r1" x="2232.6" y="264" textLength="12.2" clip-path="url(#terminal-1140556112-line-10)">
</text><text class="terminal-1140556112-r5" x="12.2" y="288.4" textLength="97.6" clip-path="url(#terminal-1140556112-line-11)">that&#160;?&#160;&#160;</text><text class="terminal-1140556112-r1" x="2232.6" y="288.4" textLength="12.2" clip-path="url(#terminal-1140556112-line-11)">
</text><text class="terminal-1140556112-r1" x="2232.6" y="312.8" textLength="12.2" clip-path="url(#terminal-1140556112-line-12)">
</text><text class="terminal-1140556112-r5" x="12.2" y="337.2" textLength="817.4" clip-path="url(#terminal-1140556112-line-13)">Fyi,&#160;the&#160;outbound&#160;message&#160;was&#160;accepted&#160;by&#160;the&#160;first&#160;relay,&#160;and&#160;then</text><text class="terminal-1140556112-r6" x="2208.2" y="337.2" textLength="24.4" clip-path="url(#terminal-1140556112-line-13)">▅▅</text><text class="terminal-1140556112-r1" x="2232.6" y="337.2" textLength="12.2" clip-path="url(#terminal-1140556112-line-13)">
</text><text class="terminal-1140556112-r5" x="12.2" y="361.6" textLength="841.8" clip-path="url(#terminal-1140556112-line-14)">presumably&#160;later&#160;bounced&#160;by&#160;the&#160;actual&#160;recipient&#160;server&#160;(Office365).&#160;</text><text class="terminal-1140556112-r1" x="2232.6" y="361.6" textLength="12.2" clip-path="url(#terminal-1140556112-line-14)">
</text><text class="terminal-1140556112-r1" x="2232.6" y="386" textLength="12.2" clip-path="url(#terminal-1140556112-line-15)">
</text><text class="terminal-1140556112-r5" x="12.2" y="410.4" textLength="427" clip-path="url(#terminal-1140556112-line-16)">Any&#160;and&#160;all&#160;hints&#160;much&#160;appreciated.</text><text class="terminal-1140556112-r1" x="2232.6" y="410.4" textLength="12.2" clip-path="url(#terminal-1140556112-line-16)">
</text><text class="terminal-1140556112-r1" x="2232.6" y="434.8" textLength="12.2" clip-path="url(#terminal-1140556112-line-17)">
</text><text class="terminal-1140556112-r1" x="2232.6" y="459.2" textLength="12.2" clip-path="url(#terminal-1140556112-line-18)">
</text><text class="terminal-1140556112-r5" x="12.2" y="483.6" textLength="36.6" clip-path="url(#terminal-1140556112-line-19)">--&#160;</text><text class="terminal-1140556112-r1" x="2232.6" y="483.6" textLength="12.2" clip-path="url(#terminal-1140556112-line-19)">
</text><text class="terminal-1140556112-r5" x="12.2" y="508" textLength="317.2" clip-path="url(#terminal-1140556112-line-20)">Per&#160;Jessen,&#160;Zürich&#160;(4.6°C)</text><text class="terminal-1140556112-r1" x="2232.6" y="508" textLength="12.2" clip-path="url(#terminal-1140556112-line-20)">
</text><text class="terminal-1140556112-r5" x="12.2" y="532.4" textLength="280.6" clip-path="url(#terminal-1140556112-line-21)">Member,&#160;openSUSE&#160;Heroes</text><text class="terminal-1140556112-r1" x="2232.6" y="532.4" textLength="12.2" clip-path="url(#terminal-1140556112-line-21)">
</text><text class="terminal-1140556112-r1" x="2232.6" y="556.8" textLength="12.2" clip-path="url(#terminal-1140556112-line-22)">
</text><text class="terminal-1140556112-r1" x="2232.6" y="581.2" textLength="12.2" clip-path="url(#terminal-1140556112-line-23)">
</text><text class="terminal-1140556112-r1" x="2232.6" y="605.6" textLength="12.2" clip-path="url(#terminal-1140556112-line-24)">
</text><text class="terminal-1140556112-r7" x="12.2" y="630" textLength="207.4" clip-path="url(#terminal-1140556112-line-25)">From:&#160;Mark&#160;Sapiro</text><text class="terminal-1140556112-r1" x="2232.6" y="630" textLength="12.2" clip-path="url(#terminal-1140556112-line-25)">
</text><text class="terminal-1140556112-r7" x="12.2" y="654.4" textLength="317.2" clip-path="url(#terminal-1140556112-line-26)">Date:&#160;2021-03-09T17:11:28Z</text><text class="terminal-1140556112-r1" x="2232.6" y="654.4" textLength="12.2" clip-path="url(#terminal-1140556112-line-26)">
</text><text class="terminal-1140556112-r1" x="2232.6" y="678.8" textLength="12.2" clip-path="url(#terminal-1140556112-line-27)">
</text><text class="terminal-1140556112-r8" x="12.2" y="703.2" textLength="439.2" clip-path="url(#terminal-1140556112-line-28)">On&#160;3/9/21&#160;1:59&#160;AM,&#160;Per&#160;Jessen&#160;wrote:</text><text class="terminal-1140556112-r1" x="2232.6" y="703.2" textLength="12.2" clip-path="url(#terminal-1140556112-line-28)">
</text><text class="terminal-1140556112-r8" x="12.2" y="727.6" textLength="73.2" clip-path="url(#terminal-1140556112-line-29)">&gt;&#160;All,</text><text class="terminal-1140556112-r1" x="2232.6" y="727.6" textLength="12.2" clip-path="url(#terminal-1140556112-line-29)">
</text><text class="terminal-1140556112-r8" x="12.2" y="752" textLength="24.4" clip-path="url(#terminal-1140556112-line-30)">&gt;&#160;</text><text class="terminal-1140556112-r1" x="2232.6" y="752" textLength="12.2" clip-path="url(#terminal-1140556112-line-30)">
</text><text class="terminal-1140556112-r8" x="12.2" y="776.4" textLength="890.6" clip-path="url(#terminal-1140556112-line-31)">&gt;&#160;I&#160;am&#160;trying&#160;to&#160;figure&#160;why&#160;a&#160;particular&#160;outbound&#160;message&#160;was&#160;bounced,&#160;so</text><text class="terminal-1140556112-r1" x="2232.6" y="776.4" textLength="12.2" clip-path="url(#terminal-1140556112-line-31)">
</text><text class="terminal-1140556112-r8" x="12.2" y="800.8" textLength="841.8" clip-path="url(#terminal-1140556112-line-32)">&gt;&#160;I&#x27;m&#160;looking&#160;for&#160;the&#160;text&#160;of&#160;the&#160;NDR&#160;that&#160;was&#160;sent&#160;-&#160;where&#160;do&#160;I&#160;find</text><text class="terminal-1140556112-r1" x="2232.6" y="800.8" textLength="12.2" clip-path="url(#terminal-1140556112-line-32)">
</text><text class="terminal-1140556112-r8" x="12.2" y="825.2" textLength="122" clip-path="url(#terminal-1140556112-line-33)">&gt;&#160;that&#160;?&#160;&#160;</text><text class="terminal-1140556112-r1" x="2232.6" y="825.2" textLength="12.2" clip-path="url(#terminal-1140556112-line-33)">
</text><text class="terminal-1140556112-r1" x="2232.6" y="849.6" textLength="12.2" clip-path="url(#terminal-1140556112-line-34)">
</text><text class="terminal-1140556112-r1" x="2232.6" y="874" textLength="12.2" clip-path="url(#terminal-1140556112-line-35)">
</text><text class="terminal-1140556112-r8" x="12.2" y="898.4" textLength="805.2" clip-path="url(#terminal-1140556112-line-36)">Mailman&#160;2.1&#160;would&#160;include&#160;the&#160;NDR&#160;in&#160;the&#160;notice&#160;to&#160;the&#160;admins&#160;when</text><text class="terminal-1140556112-r1" x="2232.6" y="898.4" textLength="12.2" clip-path="url(#terminal-1140556112-line-36)">
</text><text class="terminal-1140556112-r8" x="12.2" y="922.8" textLength="829.6" clip-path="url(#terminal-1140556112-line-37)">delivery&#160;was&#160;disabled&#160;or&#160;bounce&#160;score&#x27;s&#160;incremented&#160;if&#160;those&#160;notices</text><text class="terminal-1140556112-r1" x="2232.6" y="922.8" textLength="12.2" clip-path="url(#terminal-1140556112-line-37)">
</text><text class="terminal-1140556112-r8" x="12.2" y="947.2" textLength="597.8" clip-path="url(#terminal-1140556112-line-38)">were&#160;requested.&#160;Mailman&#160;3&#160;has&#160;no&#160;such&#160;capability.</text><text class="terminal-1140556112-r1" x="2232.6" y="947.2" textLength="12.2" clip-path="url(#terminal-1140556112-line-38)">
</text><text class="terminal-1140556112-r1" x="2232.6" y="971.6" textLength="12.2" clip-path="url(#terminal-1140556112-line-39)">
</text><text class="terminal-1140556112-r8" x="12.2" y="996" textLength="536.8" clip-path="url(#terminal-1140556112-line-40)">If&#160;you&#160;have&#160;access&#160;to&#160;the&#160;server,&#160;this&#160;patch</text><text class="terminal-1140556112-r1" x="2232.6" y="996" textLength="12.2" clip-path="url(#terminal-1140556112-line-40)">
</text><text class="terminal-1140556112-r8" x="12.2" y="1020.4" textLength="36.6" clip-path="url(#terminal-1140556112-line-41)">```</text><text class="terminal-1140556112-r1" x="2232.6" y="1020.4" textLength="12.2" clip-path="url(#terminal-1140556112-line-41)">
</text><text class="terminal-1140556112-r8" x="12.2" y="1044.8" textLength="878.4" clip-path="url(#terminal-1140556112-line-42)">&gt;&#160;diff&#160;--git&#160;a/src/mailman/runners/lmtp.py&#160;b/src/mailman/runners/lmtp.py</text><text class="terminal-1140556112-r1" x="2232.6" y="1044.8" textLength="12.2" clip-path="url(#terminal-1140556112-line-42)">
</text><text class="terminal-1140556112-r8" x="12.2" y="1069.2" textLength="427" clip-path="url(#terminal-1140556112-line-43)">&gt;&#160;index&#160;6a0bdcf5e..eca474089&#160;100644</text><text class="terminal-1140556112-r1" x="2232.6" y="1069.2" textLength="12.2" clip-path="url(#terminal-1140556112-line-43)">
</text><text class="terminal-1140556112-r8" x="12.2" y="1093.6" textLength="427" clip-path="url(#terminal-1140556112-line-44)">&gt;&#160;---&#160;a/src/mailman/runners/lmtp.py</text><text class="terminal-1140556112-r1" x="2232.6" y="1093.6" textLength="12.2" clip-path="url(#terminal-1140556112-line-44)">
</text><text class="terminal-1140556112-r8" x="12.2" y="1118" textLength="427" clip-path="url(#terminal-1140556112-line-45)">&gt;&#160;+++&#160;b/src/mailman/runners/lmtp.py</text><text class="terminal-1140556112-r1" x="2232.6" y="1118" textLength="12.2" clip-path="url(#terminal-1140556112-line-45)">
</text><text class="terminal-1140556112-r8" x="12.2" y="1142.4" textLength="488" clip-path="url(#terminal-1140556112-line-46)">&gt;&#160;@@&#160;-217,6&#160;+217,8&#160;@@&#160;class&#160;LMTPHandler:</text><text class="terminal-1140556112-r1" x="2232.6" y="1142.4" textLength="12.2" clip-path="url(#terminal-1140556112-line-46)">
</text><text class="terminal-1140556112-r8" x="12.2" y="1166.8" textLength="793" clip-path="url(#terminal-1140556112-line-47)">&gt;&#160;&#160;&#160;&#160;&#160;&#160;&#160;&#160;&#160;&#160;&#160;&#160;&#160;&#160;&#160;&#160;&#160;&#160;&#160;&#160;&#160;&#160;slog.debug(&#x27;%s&#160;subaddress:&#160;%s,&#160;queue:&#160;%s&#x27;,</text><text class="terminal-1140556112-r1" x="2232.6" y="1166.8" textLength="12.2" clip-path="url(#terminal-1140556112-line-47)">
</text><text class="terminal-1140556112-r8" x="12.2" y="1191.2" textLength="902.8" clip-path="url(#terminal-1140556112-line-48)">&gt;&#160;&#160;&#160;&#160;&#160;&#160;&#160;&#160;&#160;&#160;&#160;&#160;&#160;&#160;&#160;&#160;&#160;&#160;&#160;&#160;&#160;&#160;&#160;&#160;&#160;&#160;&#160;&#160;&#160;&#160;&#160;&#160;&#160;message_id,&#160;canonical_subaddress,&#160;queue)</text><text class="terminal-1140556112-r1" x="2232.6" y="1191.2" textLength="12.2" clip-path="url(#terminal-1140556112-line-48)">
</text><text class="terminal-1140556112-r9" x="0" y="1215.6" textLength="36.6" clip-path="url(#terminal-1140556112-line-49)">&#160;A&#160;</text><text class="terminal-1140556112-r10" x="36.6" y="1215.6" textLength="207.4" clip-path="url(#terminal-1140556112-line-49)">&#160;Add&#160;MailingList&#160;</text><text class="terminal-1140556112-r9" x="244" y="1215.6" textLength="36.6" clip-path="url(#terminal-1140556112-line-49)">&#160;D&#160;</text><text class="terminal-1140556112-r10" x="280.6" y="1215.6" textLength="219.6" clip-path="url(#terminal-1140556112-line-49)">&#160;Toggle&#160;Dark&#160;mode&#160;</text><text class="terminal-1140556112-r9" x="500.2" y="1215.6" textLength="36.6" clip-path="url(#terminal-1140556112-line-49)">&#160;S&#160;</text><text class="terminal-1140556112-r10" x="536.8" y="1215.6" textLength="146.4" clip-path="url(#terminal-1140556112-line-49)">&#160;Screenshot&#160;</text><text class="terminal-1140556112-r9" x="683.2" y="1215.6" textLength="36.6" clip-path="url(#terminal-1140556112-line-49)">&#160;Q&#160;</text><text class="terminal-1140556112-r10" x="719.8" y="1215.6" textLength="73.2" clip-path="url(#terminal-1140556112-line-49)">&#160;Quit&#160;</text><text class="terminal-1140556112-r9" x="793" y="1215.6" textLength="61" clip-path="url(#terminal-1140556112-line-49)">&#160;ESC&#160;</text><text class="terminal-1140556112-r10" x="854" y="1215.6" textLength="170.8" clip-path="url(#terminal-1140556112-line-49)">&#160;Close&#160;thread&#160;</text>
    </g>
    </g>
</svg>
