<svg class="rich-terminal" viewBox="0 0 2251 1270.0" xmlns="http://www.w3.org/2000/svg">
    <!-- Generated with Rich https://www.textualize.io -->
    <style>

    @font-face {
        font-family: "Fira Code";
        src: local("FiraCode-Regular"),
                url("https://cdnjs.cloudflare.com/ajax/libs/firacode/6.2.0/woff2/FiraCode-Regular.woff2") format("woff2"),
                url("https://cdnjs.cloudflare.com/ajax/libs/firacode/6.2.0/woff/FiraCode-Regular.woff") format("woff");
        font-style: normal;
        font-weight: 400;
    }
    @font-face {
        font-family: "Fira Code";
        src: local("FiraCode-Bold"),
                url("https://cdnjs.cloudflare.com/ajax/libs/firacode/6.2.0/woff2/FiraCode-Bold.woff2") format("woff2"),
                url("https://cdnjs.cloudflare.com/ajax/libs/firacode/6.2.0/woff/FiraCode-Bold.woff") format("woff");
        font-style: bold;
        font-weight: 700;
    }

    .terminal-2221940128-matrix {
        font-family: Fira Code, monospace;
        font-size: 20px;
        line-height: 24.4px;
        font-variant-east-asian: full-width;
    }

    .terminal-2221940128-title {
        font-size: 18px;
        font-weight: bold;
        font-family: arial;
    }

    .terminal-2221940128-r1 { fill: #dfdfdf }
.terminal-2221940128-r2 { fill: #c5c8c6 }
.terminal-2221940128-r3 { fill: #0d0d0d }
.terminal-2221940128-r4 { fill: #121212 }
.terminal-2221940128-r5 { fill: #e0e0e0 }
.terminal-2221940128-r6 { fill: #0178d4 }
.terminal-2221940128-r7 { fill: #363636 }
.terminal-2221940128-r8 { fill: #161616;font-weight: bold }
.terminal-2221940128-r9 { fill: #4ebf71;font-weight: bold }
.terminal-2221940128-r10 { fill: #e0e0e0;font-weight: bold }
.terminal-2221940128-r11 { fill: #507bb3 }
.terminal-2221940128-r12 { fill: #004578;font-weight: bold }
.terminal-2221940128-r13 { fill: #001541 }
.terminal-2221940128-r14 { fill: #dde8f3;font-weight: bold }
.terminal-2221940128-r15 { fill: #ddedf9 }
    </style>

    <defs>
    <clipPath id="terminal-2221940128-clip-terminal">
      <rect x="0" y="0" width="2231.6" height="1219.0" />
    </clipPath>
    <clipPath id="terminal-2221940128-line-0">
    <rect x="0" y="1.5" width="2232.6" height="24.65"/>
            </clipPath>
<clipPath id="terminal-2221940128-line-1">
    <rect x="0" y="25.9" width="2232.6" height="24.65"/>
            </clipPath>
<clipPath id="terminal-2221940128-line-2">
    <rect x="0" y="50.3" width="2232.6" height="24.65"/>
            </clipPath>
<clipPath id="terminal-2221940128-line-3">
    <rect x="0" y="74.7" width="2232.6" height="24.65"/>
            </clipPath>
<clipPath id="terminal-2221940128-line-4">
    <rect x="0" y="99.1" width="2232.6" height="24.65"/>
            </clipPath>
<clipPath id="terminal-2221940128-line-5">
    <rect x="0" y="123.5" width="2232.6" height="24.65"/>
            </clipPath>
<clipPath id="terminal-2221940128-line-6">
    <rect x="0" y="147.9" width="2232.6" height="24.65"/>
            </clipPath>
<clipPath id="terminal-2221940128-line-7">
    <rect x="0" y="172.3" width="2232.6" height="24.65"/>
            </clipPath>
<clipPath id="terminal-2221940128-line-8">
    <rect x="0" y="196.7" width="2232.6" height="24.65"/>
            </clipPath>
<clipPath id="terminal-2221940128-line-9">
    <rect x="0" y="221.1" width="2232.6" height="24.65"/>
            </clipPath>
<clipPath id="terminal-2221940128-line-10">
    <rect x="0" y="245.5" width="2232.6" height="24.65"/>
            </clipPath>
<clipPath id="terminal-2221940128-line-11">
    <rect x="0" y="269.9" width="2232.6" height="24.65"/>
            </clipPath>
<clipPath id="terminal-2221940128-line-12">
    <rect x="0" y="294.3" width="2232.6" height="24.65"/>
            </clipPath>
<clipPath id="terminal-2221940128-line-13">
    <rect x="0" y="318.7" width="2232.6" height="24.65"/>
            </clipPath>
<clipPath id="terminal-2221940128-line-14">
    <rect x="0" y="343.1" width="2232.6" height="24.65"/>
            </clipPath>
<clipPath id="terminal-2221940128-line-15">
    <rect x="0" y="367.5" width="2232.6" height="24.65"/>
            </clipPath>
<clipPath id="terminal-2221940128-line-16">
    <rect x="0" y="391.9" width="2232.6" height="24.65"/>
            </clipPath>
<clipPath id="terminal-2221940128-line-17">
    <rect x="0" y="416.3" width="2232.6" height="24.65"/>
            </clipPath>
<clipPath id="terminal-2221940128-line-18">
    <rect x="0" y="440.7" width="2232.6" height="24.65"/>
            </clipPath>
<clipPath id="terminal-2221940128-line-19">
    <rect x="0" y="465.1" width="2232.6" height="24.65"/>
            </clipPath>
<clipPath id="terminal-2221940128-line-20">
    <rect x="0" y="489.5" width="2232.6" height="24.65"/>
            </clipPath>
<clipPath id="terminal-2221940128-line-21">
    <rect x="0" y="513.9" width="2232.6" height="24.65"/>
            </clipPath>
<clipPath id="terminal-2221940128-line-22">
    <rect x="0" y="538.3" width="2232.6" height="24.65"/>
            </clipPath>
<clipPath id="terminal-2221940128-line-23">
    <rect x="0" y="562.7" width="2232.6" height="24.65"/>
            </clipPath>
<clipPath id="terminal-2221940128-line-24">
    <rect x="0" y="587.1" width="2232.6" height="24.65"/>
            </clipPath>
<clipPath id="terminal-2221940128-line-25">
    <rect x="0" y="611.5" width="2232.6" height="24.65"/>
            </clipPath>
<clipPath id="terminal-2221940128-line-26">
    <rect x="0" y="635.9" width="2232.6" height="24.65"/>
            </clipPath>
<clipPath id="terminal-2221940128-line-27">
    <rect x="0" y="660.3" width="2232.6" height="24.65"/>
            </clipPath>
<clipPath id="terminal-2221940128-line-28">
    <rect x="0" y="684.7" width="2232.6" height="24.65"/>
            </clipPath>
<clipPath id="terminal-2221940128-line-29">
    <rect x="0" y="709.1" width="2232.6" height="24.65"/>
            </clipPath>
<clipPath id="terminal-2221940128-line-30">
    <rect x="0" y="733.5" width="2232.6" height="24.65"/>
            </clipPath>
<clipPath id="terminal-2221940128-line-31">
    <rect x="0" y="757.9" width="2232.6" height="24.65"/>
            </clipPath>
<clipPath id="terminal-2221940128-line-32">
    <rect x="0" y="782.3" width="2232.6" height="24.65"/>
            </clipPath>
<clipPath id="terminal-2221940128-line-33">
    <rect x="0" y="806.7" width="2232.6" height="24.65"/>
            </clipPath>
<clipPath id="terminal-2221940128-line-34">
    <rect x="0" y="831.1" width="2232.6" height="24.65"/>
            </clipPath>
<clipPath id="terminal-2221940128-line-35">
    <rect x="0" y="855.5" width="2232.6" height="24.65"/>
            </clipPath>
<clipPath id="terminal-2221940128-line-36">
    <rect x="0" y="879.9" width="2232.6" height="24.65"/>
            </clipPath>
<clipPath id="terminal-2221940128-line-37">
    <rect x="0" y="904.3" width="2232.6" height="24.65"/>
            </clipPath>
<clipPath id="terminal-2221940128-line-38">
    <rect x="0" y="928.7" width="2232.6" height="24.65"/>
            </clipPath>
<clipPath id="terminal-2221940128-line-39">
    <rect x="0" y="953.1" width="2232.6" height="24.65"/>
            </clipPath>
<clipPath id="terminal-2221940128-line-40">
    <rect x="0" y="977.5" width="2232.6" height="24.65"/>
            </clipPath>
<clipPath id="terminal-2221940128-line-41">
    <rect x="0" y="1001.9" width="2232.6" height="24.65"/>
            </clipPath>
<clipPath id="terminal-2221940128-line-42">
    <rect x="0" y="1026.3" width="2232.6" height="24.65"/>
            </clipPath>
<clipPath id="terminal-2221940128-line-43">
    <rect x="0" y="1050.7" width="2232.6" height="24.65"/>
            </clipPath>
<clipPath id="terminal-2221940128-line-44">
    <rect x="0" y="1075.1" width="2232.6" height="24.65"/>
            </clipPath>
<clipPath id="terminal-2221940128-line-45">
    <rect x="0" y="1099.5" width="2232.6" height="24.65"/>
            </clipPath>
<clipPath id="terminal-2221940128-line-46">
    <rect x="0" y="1123.9" width="2232.6" height="24.65"/>
            </clipPath>
<clipPath id="terminal-2221940128-line-47">
    <rect x="0" y="1148.3" width="2232.6" height="24.65"/>
            </clipPath>
<clipPath id="terminal-2221940128-line-48">
    <rect x="0" y="1172.7" width="2232.6" height="24.65"/>
            </clipPath>
    </defs>

    <rect fill="#292929" stroke="rgba(255,255,255,0.35)" stroke-width="1" x="1" y="1" width="2249" height="1268" rx="8"/><text class="terminal-2221940128-title" fill="#c5c8c6" text-anchor="middle" x="1124" y="27">Archive&#160;Reader</text>
            <g transform="translate(26,22)">
            <circle cx="0" cy="0" r="7" fill="#ff5f57"/>
            <circle cx="22" cy="0" r="7" fill="#febc2e"/>
            <circle cx="44" cy="0" r="7" fill="#28c840"/>
            </g>
        
    <g transform="translate(9, 41)" clip-path="url(#terminal-2221940128-clip-terminal)">
    <rect fill="#0d0d0d" x="0" y="1.5" width="256.2" height="24.65" shape-rendering="crispEdges"/><rect fill="#0d0d0d" x="256.2" y="1.5" width="1976.4" height="24.65" shape-rendering="crispEdges"/><rect fill="#121212" x="0" y="25.9" width="12.2" height="24.65" shape-rendering="crispEdges"/><rect fill="#161616" x="12.2" y="25.9" width="2208.2" height="24.65" shape-rendering="crispEdges"/><rect fill="#0d0d0d" x="2220.4" y="25.9" width="12.2" height="24.65" shape-rendering="crispEdges"/><rect fill="#121212" x="0" y="50.3" width="12.2" height="24.65" shape-rendering="crispEdges"/><rect fill="#161616" x="12.2" y="50.3" width="24.4" height="24.65" shape-rendering="crispEdges"/><rect fill="#161616" x="36.6" y="50.3" width="439.2" height="24.65" shape-rendering="crispEdges"/><rect fill="#161616" x="475.8" y="50.3" width="1720.2" height="24.65" shape-rendering="crispEdges"/><rect fill="#161616" x="2196" y="50.3" width="24.4" height="24.65" shape-rendering="crispEdges"/><rect fill="#0d0d0d" x="2220.4" y="50.3" width="12.2" height="24.65" shape-rendering="crispEdges"/><rect fill="#121212" x="0" y="74.7" width="12.2" height="24.65" shape-rendering="crispEdges"/><rect fill="#161616" x="12.2" y="74.7" width="2208.2" height="24.65" shape-rendering="crispEdges"/><rect fill="#0d0d0d" x="2220.4" y="74.7" width="12.2" height="24.65" shape-rendering="crispEdges"/><rect fill="#0d0d0d" x="0" y="99.1" width="0" height="24.65" shape-rendering="crispEdges"/><rect fill="#0d0d0d" x="0" y="99.1" width="2232.6" height="24.65" shape-rendering="crispEdges"/><rect fill="#161616" x="0" y="123.5" width="12.2" height="24.65" shape-rendering="crispEdges"/><rect fill="#161616" x="12.2" y="123.5" width="12.2" height="24.65" shape-rendering="crispEdges"/><rect fill="#161616" x="24.4" y="123.5" width="463.6" height="24.65" shape-rendering="crispEdges"/><rect fill="#161616" x="488" y="123.5" width="1293.2" height="24.65" shape-rendering="crispEdges"/><rect fill="#161616" x="1781.2" y="123.5" width="12.2" height="24.65" shape-rendering="crispEdges"/><rect fill="#0d0d0d" x="1793.4" y="123.5" width="439.2" height="24.65" shape-rendering="crispEdges"/><rect fill="#161616" x="0" y="147.9" width="12.2" height="24.65" shape-rendering="crispEdges"/><rect fill="#161616" x="12.2" y="147.9" width="1769" height="24.65" shape-rendering="crispEdges"/><rect fill="#161616" x="1781.2" y="147.9" width="12.2" height="24.65" shape-rendering="crispEdges"/><rect fill="#0d0d0d" x="1793.4" y="147.9" width="439.2" height="24.65" shape-rendering="crispEdges"/><rect fill="#161616" x="0" y="172.3" width="12.2" height="24.65" shape-rendering="crispEdges"/><rect fill="#161616" x="12.2" y="172.3" width="12.2" height="24.65" shape-rendering="crispEdges"/><rect fill="#161616" x="24.4" y="172.3" width="12.2" height="24.65" shape-rendering="crispEdges"/><rect fill="#363636" x="36.6" y="172.3" width="12.2" height="24.65" shape-rendering="crispEdges"/><rect fill="#161616" x="48.8" y="172.3" width="12.2" height="24.65" shape-rendering="crispEdges"/><rect fill="#161616" x="61" y="172.3" width="12.2" height="24.65" shape-rendering="crispEdges"/><rect fill="#161616" x="73.2" y="172.3" width="341.6" height="24.65" shape-rendering="crispEdges"/><rect fill="#161616" x="414.8" y="172.3" width="1354.2" height="24.65" shape-rendering="crispEdges"/><rect fill="#161616" x="1769" y="172.3" width="12.2" height="24.65" shape-rendering="crispEdges"/><rect fill="#161616" x="1781.2" y="172.3" width="12.2" height="24.65" shape-rendering="crispEdges"/><rect fill="#0d0d0d" x="1793.4" y="172.3" width="439.2" height="24.65" shape-rendering="crispEdges"/><rect fill="#161616" x="0" y="196.7" width="12.2" height="24.65" shape-rendering="crispEdges"/><rect fill="#161616" x="12.2" y="196.7" width="12.2" height="24.65" shape-rendering="crispEdges"/><rect fill="#161616" x="24.4" y="196.7" width="12.2" height="24.65" shape-rendering="crispEdges"/><rect fill="#363636" x="36.6" y="196.7" width="12.2" height="24.65" shape-rendering="crispEdges"/><rect fill="#161616" x="48.8" y="196.7" width="12.2" height="24.65" shape-rendering="crispEdges"/><rect fill="#161616" x="61" y="196.7" width="12.2" height="24.65" shape-rendering="crispEdges"/><rect fill="#161616" x="73.2" y="196.7" width="341.6" height="24.65" shape-rendering="crispEdges"/><rect fill="#161616" x="414.8" y="196.7" width="1354.2" height="24.65" shape-rendering="crispEdges"/><rect fill="#161616" x="1769" y="196.7" width="12.2" height="24.65" shape-rendering="crispEdges"/><rect fill="#161616" x="1781.2" y="196.7" width="12.2" height="24.65" shape-rendering="crispEdges"/><rect fill="#0d0d0d" x="1793.4" y="196.7" width="439.2" height="24.65" shape-rendering="crispEdges"/><rect fill="#161616" x="0" y="221.1" width="12.2" height="24.65" shape-rendering="crispEdges"/><rect fill="#161616" x="12.2" y="221.1" width="12.2" height="24.65" shape-rendering="crispEdges"/><rect fill="#161616" x="24.4" y="221.1" width="12.2" height="24.65" shape-rendering="crispEdges"/><rect fill="#363636" x="36.6" y="221.1" width="12.2" height="24.65" shape-rendering="crispEdges"/><rect fill="#161616" x="48.8" y="221.1" width="12.2" height="24.65" shape-rendering="crispEdges"/><rect fill="#161616" x="61" y="221.1" width="12.2" height="24.65" shape-rendering="crispEdges"/><rect fill="#161616" x="73.2" y="221.1" width="317.2" height="24.65" shape-rendering="crispEdges"/><rect fill="#161616" x="390.4" y="221.1" width="1378.6" height="24.65" shape-rendering="crispEdges"/><rect fill="#161616" x="1769" y="221.1" width="12.2" height="24.65" shape-rendering="crispEdges"/><rect fill="#161616" x="1781.2" y="221.1" width="12.2" height="24.65" shape-rendering="crispEdges"/><rect fill="#0d0d0d" x="1793.4" y="221.1" width="439.2" height="24.65" shape-rendering="crispEdges"/><rect fill="#161616" x="0" y="245.5" width="12.2" height="24.65" shape-rendering="crispEdges"/><rect fill="#161616" x="12.2" y="245.5" width="12.2" height="24.65" shape-rendering="crispEdges"/><rect fill="#161616" x="24.4" y="245.5" width="12.2" height="24.65" shape-rendering="crispEdges"/><rect fill="#363636" x="36.6" y="245.5" width="12.2" height="24.65" shape-rendering="crispEdges"/><rect fill="#161616" x="48.8" y="245.5" width="12.2" height="24.65" shape-rendering="crispEdges"/><rect fill="#161616" x="61" y="245.5" width="12.2" height="24.65" shape-rendering="crispEdges"/><rect fill="#161616" x="73.2" y="245.5" width="536.8" height="24.65" shape-rendering="crispEdges"/><rect fill="#161616" x="610" y="245.5" width="1159" height="24.65" shape-rendering="crispEdges"/><rect fill="#161616" x="1769" y="245.5" width="12.2" height="24.65" shape-rendering="crispEdges"/><rect fill="#161616" x="1781.2" y="245.5" width="12.2" height="24.65" shape-rendering="crispEdges"/><rect fill="#0d0d0d" x="1793.4" y="245.5" width="439.2" height="24.65" shape-rendering="crispEdges"/><rect fill="#161616" x="0" y="269.9" width="12.2" height="24.65" shape-rendering="crispEdges"/><rect fill="#161616" x="12.2" y="269.9" width="1769" height="24.65" shape-rendering="crispEdges"/><rect fill="#161616" x="1781.2" y="269.9" width="12.2" height="24.65" shape-rendering="crispEdges"/><rect fill="#0d0d0d" x="1793.4" y="269.9" width="439.2" height="24.65" shape-rendering="crispEdges"/><rect fill="#161616" x="0" y="294.3" width="12.2" height="24.65" shape-rendering="crispEdges"/><rect fill="#161616" x="12.2" y="294.3" width="1769" height="24.65" shape-rendering="crispEdges"/><rect fill="#161616" x="1781.2" y="294.3" width="12.2" height="24.65" shape-rendering="crispEdges"/><rect fill="#0d0d0d" x="1793.4" y="294.3" width="439.2" height="24.65" shape-rendering="crispEdges"/><rect fill="#004578" x="0" y="318.7" width="244" height="24.65" shape-rendering="crispEdges"/><rect fill="#0d0d0d" x="244" y="318.7" width="1988.6" height="24.65" shape-rendering="crispEdges"/><rect fill="#004578" x="0" y="343.1" width="0" height="24.65" shape-rendering="crispEdges"/><rect fill="#dde6ed" x="0" y="343.1" width="12.2" height="24.65" shape-rendering="crispEdges"/><rect fill="#dde6ed" x="12.2" y="343.1" width="219.6" height="24.65" shape-rendering="crispEdges"/><rect fill="#dde6ed" x="231.8" y="343.1" width="12.2" height="24.65" shape-rendering="crispEdges"/><rect fill="#0d0d0d" x="244" y="343.1" width="1988.6" height="24.65" shape-rendering="crispEdges"/><rect fill="#004578" x="0" y="367.5" width="244" height="24.65" shape-rendering="crispEdges"/><rect fill="#0d0d0d" x="244" y="367.5" width="1988.6" height="24.65" shape-rendering="crispEdges"/><rect fill="#0d0d0d" x="0" y="391.9" width="2232.6" height="24.65" shape-rendering="crispEdges"/><rect fill="#0d0d0d" x="0" y="416.3" width="2232.6" height="24.65" shape-rendering="crispEdges"/><rect fill="#0d0d0d" x="0" y="440.7" width="2232.6" height="24.65" shape-rendering="crispEdges"/><rect fill="#0d0d0d" x="0" y="465.1" width="2232.6" height="24.65" shape-rendering="crispEdges"/><rect fill="#0d0d0d" x="0" y="489.5" width="2232.6" height="24.65" shape-rendering="crispEdges"/><rect fill="#0d0d0d" x="0" y="513.9" width="2232.6" height="24.65" shape-rendering="crispEdges"/><rect fill="#0d0d0d" x="0" y="538.3" width="2232.6" height="24.65" shape-rendering="crispEdges"/><rect fill="#0d0d0d" x="0" y="562.7" width="2232.6" height="24.65" shape-rendering="crispEdges"/><rect fill="#0d0d0d" x="0" y="587.1" width="2232.6" height="24.65" shape-rendering="crispEdges"/><rect fill="#0d0d0d" x="0" y="611.5" width="2232.6" height="24.65" shape-rendering="crispEdges"/><rect fill="#0d0d0d" x="0" y="635.9" width="2232.6" height="24.65" shape-rendering="crispEdges"/><rect fill="#0d0d0d" x="0" y="660.3" width="2232.6" height="24.65" shape-rendering="crispEdges"/><rect fill="#0d0d0d" x="0" y="684.7" width="2232.6" height="24.65" shape-rendering="crispEdges"/><rect fill="#0d0d0d" x="0" y="709.1" width="2232.6" height="24.65" shape-rendering="crispEdges"/><rect fill="#0d0d0d" x="0" y="733.5" width="2232.6" height="24.65" shape-rendering="crispEdges"/><rect fill="#0d0d0d" x="0" y="757.9" width="2232.6" height="24.65" shape-rendering="crispEdges"/><rect fill="#0d0d0d" x="0" y="782.3" width="2232.6" height="24.65" shape-rendering="crispEdges"/><rect fill="#0d0d0d" x="0" y="806.7" width="2232.6" height="24.65" shape-rendering="crispEdges"/><rect fill="#0d0d0d" x="0" y="831.1" width="2232.6" height="24.65" shape-rendering="crispEdges"/><rect fill="#0d0d0d" x="0" y="855.5" width="2232.6" height="24.65" shape-rendering="crispEdges"/><rect fill="#0d0d0d" x="0" y="879.9" width="2232.6" height="24.65" shape-rendering="crispEdges"/><rect fill="#0d0d0d" x="0" y="904.3" width="2232.6" height="24.65" shape-rendering="crispEdges"/><rect fill="#0d0d0d" x="0" y="928.7" width="2232.6" height="24.65" shape-rendering="crispEdges"/><rect fill="#0d0d0d" x="0" y="953.1" width="2232.6" height="24.65" shape-rendering="crispEdges"/><rect fill="#0d0d0d" x="0" y="977.5" width="2232.6" height="24.65" shape-rendering="crispEdges"/><rect fill="#0d0d0d" x="0" y="1001.9" width="2232.6" height="24.65" shape-rendering="crispEdges"/><rect fill="#0d0d0d" x="0" y="1026.3" width="2232.6" height="24.65" shape-rendering="crispEdges"/><rect fill="#0d0d0d" x="0" y="1050.7" width="2232.6" height="24.65" shape-rendering="crispEdges"/><rect fill="#0d0d0d" x="0" y="1075.1" width="2232.6" height="24.65" shape-rendering="crispEdges"/><rect fill="#0d0d0d" x="0" y="1099.5" width="2232.6" height="24.65" shape-rendering="crispEdges"/><rect fill="#0d0d0d" x="0" y="1123.9" width="2232.6" height="24.65" shape-rendering="crispEdges"/><rect fill="#0d0d0d" x="0" y="1148.3" width="2232.6" height="24.65" shape-rendering="crispEdges"/><rect fill="#0d0d0d" x="0" y="1172.7" width="2232.6" height="24.65" shape-rendering="crispEdges"/><rect fill="#0053aa" x="0" y="1197.1" width="36.6" height="24.65" shape-rendering="crispEdges"/><rect fill="#0178d4" x="36.6" y="1197.1" width="207.4" height="24.65" shape-rendering="crispEdges"/><rect fill="#0053aa" x="244" y="1197.1" width="36.6" height="24.65" shape-rendering="crispEdges"/><rect fill="#0178d4" x="280.6" y="1197.1" width="219.6" height="24.65" shape-rendering="crispEdges"/><rect fill="#0053aa" x="500.2" y="1197.1" width="36.6" height="24.65" shape-rendering="crispEdges"/><rect fill="#0178d4" x="536.8" y="1197.1" width="146.4" height="24.65" shape-rendering="crispEdges"/><rect fill="#0053aa" x="683.2" y="1197.1" width="36.6" height="24.65" shape-rendering="crispEdges"/><rect fill="#0178d4" x="719.8" y="1197.1" width="73.2" height="24.65" shape-rendering="crispEdges"/><rect fill="#0053aa" x="793" y="1197.1" width="61" height="24.65" shape-rendering="crispEdges"/><rect fill="#0178d4" x="854" y="1197.1" width="146.4" height="24.65" shape-rendering="crispEdges"/><rect fill="#0178d4" x="1000.4" y="1197.1" width="1232.2" height="24.65" shape-rendering="crispEdges"/>
    <g class="terminal-2221940128-matrix">
    <text class="terminal-2221940128-r1" x="0" y="20" textLength="256.2" clip-path="url(#terminal-2221940128-line-0)">Hyperkitty&#160;Server&#160;URL</text><text class="terminal-2221940128-r2" x="2232.6" y="20" textLength="12.2" clip-path="url(#terminal-2221940128-line-0)">
</text><text class="terminal-2221940128-r3" x="0" y="44.4" textLength="12.2" clip-path="url(#terminal-2221940128-line-1)">▊</text><text class="terminal-2221940128-r4" x="12.2" y="44.4" textLength="2208.2" clip-path="url(#terminal-2221940128-line-1)">▔▔▔▔▔▔▔▔▔▔▔▔▔▔▔▔▔▔▔▔▔▔▔▔▔▔▔▔▔▔▔▔▔▔▔▔▔▔▔▔▔▔▔▔▔▔▔▔▔▔▔▔▔▔▔▔▔▔▔▔▔▔▔▔▔▔▔▔▔▔▔▔▔▔▔▔▔▔▔▔▔▔▔▔▔▔▔▔▔▔▔▔▔▔▔▔▔▔▔▔▔▔▔▔▔▔▔▔▔▔▔▔▔▔▔▔▔▔▔▔▔▔▔▔▔▔▔▔▔▔▔▔▔▔▔▔▔▔▔▔▔▔▔▔▔▔▔▔▔▔▔▔▔▔▔▔▔▔▔▔▔▔▔▔▔▔▔▔▔▔▔▔▔▔▔▔▔▔▔▔▔</text><text class="terminal-2221940128-r4" x="2220.4" y="44.4" textLength="12.2" clip-path="url(#terminal-2221940128-line-1)">▎</text><text class="terminal-2221940128-r2" x="2232.6" y="44.4" textLength="12.2" clip-path="url(#terminal-2221940128-line-1)">
</text><text class="terminal-2221940128-r3" x="0" y="68.8" textLength="12.2" clip-path="url(#terminal-2221940128-line-2)">▊</text><text class="terminal-2221940128-r5" x="36.6" y="68.8" textLength="439.2" clip-path="url(#terminal-2221940128-line-2)">https://lists.mailman3.org/archives/</text><text class="terminal-2221940128-r4" x="2220.4" y="68.8" textLength="12.2" clip-path="url(#terminal-2221940128-line-2)">▎</text><text class="terminal-2221940128-r2" x="2232.6" y="68.8" textLength="12.2" clip-path="url(#terminal-2221940128-line-2)">
</text><text class="terminal-2221940128-r3" x="0" y="93.2" textLength="12.2" clip-path="url(#terminal-2221940128-line-3)">▊</text><text class="terminal-2221940128-r4" x="12.2" y="93.2" textLength="2208.2" clip-path="url(#terminal-2221940128-line-3)">▁▁▁▁▁▁▁▁▁▁▁▁▁▁▁▁▁▁▁▁▁▁▁▁▁▁▁▁▁▁▁▁▁▁▁▁▁▁▁▁▁▁▁▁▁▁▁▁▁▁▁▁▁▁▁▁▁▁▁▁▁▁▁▁▁▁▁▁▁▁▁▁▁▁▁▁▁▁▁▁▁▁▁▁▁▁▁▁▁▁▁▁▁▁▁▁▁▁▁▁▁▁▁▁▁▁▁▁▁▁▁▁▁▁▁▁▁▁▁▁▁▁▁▁▁▁▁▁▁▁▁▁▁▁▁▁▁▁▁▁▁▁▁▁▁▁▁▁▁▁▁▁▁▁▁▁▁▁▁▁▁▁▁▁▁▁▁▁▁▁▁▁▁▁▁▁▁▁▁▁▁</text><text class="terminal-2221940128-r4" x="2220.4" y="93.2" textLength="12.2" clip-path="url(#terminal-2221940128-line-3)">▎</text><text class="terminal-2221940128-r2" x="2232.6" y="93.2" textLength="12.2" clip-path="url(#terminal-2221940128-line-3)">
</text><text class="terminal-2221940128-r2" x="2232.6" y="117.6" textLength="12.2" clip-path="url(#terminal-2221940128-line-4)">
</text><text class="terminal-2221940128-r6" x="0" y="142" textLength="12.2" clip-path="url(#terminal-2221940128-line-5)">┌</text><text class="terminal-2221940128-r6" x="12.2" y="142" textLength="12.2" clip-path="url(#terminal-2221940128-line-5)">─</text><text class="terminal-2221940128-r6" x="24.4" y="142" textLength="463.6" clip-path="url(#terminal-2221940128-line-5)">&#160;Select&#160;Mailing&#160;lists&#160;to&#160;subscribe&#160;to&#160;</text><text class="terminal-2221940128-r6" x="488" y="142" textLength="1293.2" clip-path="url(#terminal-2221940128-line-5)">──────────────────────────────────────────────────────────────────────────────────────────────────────────</text><text class="terminal-2221940128-r6" x="1781.2" y="142" textLength="12.2" clip-path="url(#terminal-2221940128-line-5)">┐</text><text class="terminal-2221940128-r2" x="2232.6" y="142" textLength="12.2" clip-path="url(#terminal-2221940128-line-5)">
</text><text class="terminal-2221940128-r6" x="0" y="166.4" textLength="12.2" clip-path="url(#terminal-2221940128-line-6)">│</text><text class="terminal-2221940128-r6" x="1781.2" y="166.4" textLength="12.2" clip-path="url(#terminal-2221940128-line-6)">│</text><text class="terminal-2221940128-r2" x="2232.6" y="166.4" textLength="12.2" clip-path="url(#terminal-2221940128-line-6)">
</text><text class="terminal-2221940128-r6" x="0" y="190.8" textLength="12.2" clip-path="url(#terminal-2221940128-line-7)">│</text><text class="terminal-2221940128-r7" x="24.4" y="190.8" textLength="12.2" clip-path="url(#terminal-2221940128-line-7)">▐</text><text class="terminal-2221940128-r8" x="36.6" y="190.8" textLength="12.2" clip-path="url(#terminal-2221940128-line-7)">X</text><text class="terminal-2221940128-r7" x="48.8" y="190.8" textLength="12.2" clip-path="url(#terminal-2221940128-line-7)">▌</text><text class="terminal-2221940128-r5" x="73.2" y="190.8" textLength="341.6" clip-path="url(#terminal-2221940128-line-7)">Dummy&#160;&lt;&quot;dummy@mailman3.org&quot;&gt;</text><text class="terminal-2221940128-r6" x="1781.2" y="190.8" textLength="12.2" clip-path="url(#terminal-2221940128-line-7)">│</text><text class="terminal-2221940128-r2" x="2232.6" y="190.8" textLength="12.2" clip-path="url(#terminal-2221940128-line-7)">
</text><text class="terminal-2221940128-r6" x="0" y="215.2" textLength="12.2" clip-path="url(#terminal-2221940128-line-8)">│</text><text class="terminal-2221940128-r7" x="24.4" y="215.2" textLength="12.2" clip-path="url(#terminal-2221940128-line-8)">▐</text><text class="terminal-2221940128-r8" x="36.6" y="215.2" textLength="12.2" clip-path="url(#terminal-2221940128-line-8)">X</text><text class="terminal-2221940128-r7" x="48.8" y="215.2" textLength="12.2" clip-path="url(#terminal-2221940128-line-8)">▌</text><text class="terminal-2221940128-r5" x="73.2" y="215.2" textLength="341.6" clip-path="url(#terminal-2221940128-line-8)">Bogus&#160;&lt;&quot;bogus@mailman3.org&quot;&gt;</text><text class="terminal-2221940128-r6" x="1781.2" y="215.2" textLength="12.2" clip-path="url(#terminal-2221940128-line-8)">│</text><text class="terminal-2221940128-r2" x="2232.6" y="215.2" textLength="12.2" clip-path="url(#terminal-2221940128-line-8)">
</text><text class="terminal-2221940128-r6" x="0" y="239.6" textLength="12.2" clip-path="url(#terminal-2221940128-line-9)">│</text><text class="terminal-2221940128-r7" x="24.4" y="239.6" textLength="12.2" clip-path="url(#terminal-2221940128-line-9)">▐</text><text class="terminal-2221940128-r9" x="36.6" y="239.6" textLength="12.2" clip-path="url(#terminal-2221940128-line-9)">X</text><text class="terminal-2221940128-r7" x="48.8" y="239.6" textLength="12.2" clip-path="url(#terminal-2221940128-line-9)">▌</text><text class="terminal-2221940128-r5" x="73.2" y="239.6" textLength="317.2" clip-path="url(#terminal-2221940128-line-9)">Test&#160;&lt;&quot;test@mailman3.org&quot;&gt;</text><text class="terminal-2221940128-r6" x="1781.2" y="239.6" textLength="12.2" clip-path="url(#terminal-2221940128-line-9)">│</text><text class="terminal-2221940128-r2" x="2232.6" y="239.6" textLength="12.2" clip-path="url(#terminal-2221940128-line-9)">
</text><text class="terminal-2221940128-r6" x="0" y="264" textLength="12.2" clip-path="url(#terminal-2221940128-line-10)">│</text><text class="terminal-2221940128-r7" x="24.4" y="264" textLength="12.2" clip-path="url(#terminal-2221940128-line-10)">▐</text><text class="terminal-2221940128-r9" x="36.6" y="264" textLength="12.2" clip-path="url(#terminal-2221940128-line-10)">X</text><text class="terminal-2221940128-r7" x="48.8" y="264" textLength="12.2" clip-path="url(#terminal-2221940128-line-10)">▌</text><text class="terminal-2221940128-r10" x="73.2" y="264" textLength="536.8" clip-path="url(#terminal-2221940128-line-10)">Mailman-users&#160;&lt;&quot;mailman-users@mailman3.org&quot;&gt;</text><text class="terminal-2221940128-r6" x="1781.2" y="264" textLength="12.2" clip-path="url(#terminal-2221940128-line-10)">│</text><text class="terminal-2221940128-r2" x="2232.6" y="264" textLength="12.2" clip-path="url(#terminal-2221940128-line-10)">
</text><text class="terminal-2221940128-r6" x="0" y="288.4" textLength="12.2" clip-path="url(#terminal-2221940128-line-11)">│</text><text class="terminal-2221940128-r6" x="1781.2" y="288.4" textLength="12.2" clip-path="url(#terminal-2221940128-line-11)">│</text><text class="terminal-2221940128-r2" x="2232.6" y="288.4" textLength="12.2" clip-path="url(#terminal-2221940128-line-11)">
</text><text class="terminal-2221940128-r6" x="0" y="312.8" textLength="12.2" clip-path="url(#terminal-2221940128-line-12)">└</text><text class="terminal-2221940128-r6" x="12.2" y="312.8" textLength="1769" clip-path="url(#terminal-2221940128-line-12)">─────────────────────────────────────────────────────────────────────────────────────────────────────────────────────────────────────────────────</text><text class="terminal-2221940128-r6" x="1781.2" y="312.8" textLength="12.2" clip-path="url(#terminal-2221940128-line-12)">┘</text><text class="terminal-2221940128-r2" x="2232.6" y="312.8" textLength="12.2" clip-path="url(#terminal-2221940128-line-12)">
</text><text class="terminal-2221940128-r11" x="0" y="337.2" textLength="244" clip-path="url(#terminal-2221940128-line-13)">▔▔▔▔▔▔▔▔▔▔▔▔▔▔▔▔▔▔▔▔</text><text class="terminal-2221940128-r2" x="2232.6" y="337.2" textLength="12.2" clip-path="url(#terminal-2221940128-line-13)">
</text><text class="terminal-2221940128-r12" x="12.2" y="361.6" textLength="219.6" clip-path="url(#terminal-2221940128-line-14)">Subscribe&#160;Selected</text><text class="terminal-2221940128-r2" x="2232.6" y="361.6" textLength="12.2" clip-path="url(#terminal-2221940128-line-14)">
</text><text class="terminal-2221940128-r13" x="0" y="386" textLength="244" clip-path="url(#terminal-2221940128-line-15)">▁▁▁▁▁▁▁▁▁▁▁▁▁▁▁▁▁▁▁▁</text><text class="terminal-2221940128-r2" x="2232.6" y="386" textLength="12.2" clip-path="url(#terminal-2221940128-line-15)">
</text><text class="terminal-2221940128-r2" x="2232.6" y="410.4" textLength="12.2" clip-path="url(#terminal-2221940128-line-16)">
</text><text class="terminal-2221940128-r2" x="2232.6" y="434.8" textLength="12.2" clip-path="url(#terminal-2221940128-line-17)">
</text><text class="terminal-2221940128-r2" x="2232.6" y="459.2" textLength="12.2" clip-path="url(#terminal-2221940128-line-18)">
</text><text class="terminal-2221940128-r2" x="2232.6" y="483.6" textLength="12.2" clip-path="url(#terminal-2221940128-line-19)">
</text><text class="terminal-2221940128-r2" x="2232.6" y="508" textLength="12.2" clip-path="url(#terminal-2221940128-line-20)">
</text><text class="terminal-2221940128-r2" x="2232.6" y="532.4" textLength="12.2" clip-path="url(#terminal-2221940128-line-21)">
</text><text class="terminal-2221940128-r2" x="2232.6" y="556.8" textLength="12.2" clip-path="url(#terminal-2221940128-line-22)">
</text><text class="terminal-2221940128-r2" x="2232.6" y="581.2" textLength="12.2" clip-path="url(#terminal-2221940128-line-23)">
</text><text class="terminal-2221940128-r2" x="2232.6" y="605.6" textLength="12.2" clip-path="url(#terminal-2221940128-line-24)">
</text><text class="terminal-2221940128-r2" x="2232.6" y="630" textLength="12.2" clip-path="url(#terminal-2221940128-line-25)">
</text><text class="terminal-2221940128-r2" x="2232.6" y="654.4" textLength="12.2" clip-path="url(#terminal-2221940128-line-26)">
</text><text class="terminal-2221940128-r2" x="2232.6" y="678.8" textLength="12.2" clip-path="url(#terminal-2221940128-line-27)">
</text><text class="terminal-2221940128-r2" x="2232.6" y="703.2" textLength="12.2" clip-path="url(#terminal-2221940128-line-28)">
</text><text class="terminal-2221940128-r2" x="2232.6" y="727.6" textLength="12.2" clip-path="url(#terminal-2221940128-line-29)">
</text><text class="terminal-2221940128-r2" x="2232.6" y="752" textLength="12.2" clip-path="url(#terminal-2221940128-line-30)">
</text><text class="terminal-2221940128-r2" x="2232.6" y="776.4" textLength="12.2" clip-path="url(#terminal-2221940128-line-31)">
</text><text class="terminal-2221940128-r2" x="2232.6" y="800.8" textLength="12.2" clip-path="url(#terminal-2221940128-line-32)">
</text><text class="terminal-2221940128-r2" x="2232.6" y="825.2" textLength="12.2" clip-path="url(#terminal-2221940128-line-33)">
</text><text class="terminal-2221940128-r2" x="2232.6" y="849.6" textLength="12.2" clip-path="url(#terminal-2221940128-line-34)">
</text><text class="terminal-2221940128-r2" x="2232.6" y="874" textLength="12.2" clip-path="url(#terminal-2221940128-line-35)">
</text><text class="terminal-2221940128-r2" x="2232.6" y="898.4" textLength="12.2" clip-path="url(#terminal-2221940128-line-36)">
</text><text class="terminal-2221940128-r2" x="2232.6" y="922.8" textLength="12.2" clip-path="url(#terminal-2221940128-line-37)">
</text><text class="terminal-2221940128-r2" x="2232.6" y="947.2" textLength="12.2" clip-path="url(#terminal-2221940128-line-38)">
</text><text class="terminal-2221940128-r2" x="2232.6" y="971.6" textLength="12.2" clip-path="url(#terminal-2221940128-line-39)">
</text><text class="terminal-2221940128-r2" x="2232.6" y="996" textLength="12.2" clip-path="url(#terminal-2221940128-line-40)">
</text><text class="terminal-2221940128-r2" x="2232.6" y="1020.4" textLength="12.2" clip-path="url(#terminal-2221940128-line-41)">
</text><text class="terminal-2221940128-r2" x="2232.6" y="1044.8" textLength="12.2" clip-path="url(#terminal-2221940128-line-42)">
</text><text class="terminal-2221940128-r2" x="2232.6" y="1069.2" textLength="12.2" clip-path="url(#terminal-2221940128-line-43)">
</text><text class="terminal-2221940128-r2" x="2232.6" y="1093.6" textLength="12.2" clip-path="url(#terminal-2221940128-line-44)">
</text><text class="terminal-2221940128-r2" x="2232.6" y="1118" textLength="12.2" clip-path="url(#terminal-2221940128-line-45)">
</text><text class="terminal-2221940128-r2" x="2232.6" y="1142.4" textLength="12.2" clip-path="url(#terminal-2221940128-line-46)">
</text><text class="terminal-2221940128-r2" x="2232.6" y="1166.8" textLength="12.2" clip-path="url(#terminal-2221940128-line-47)">
</text><text class="terminal-2221940128-r2" x="2232.6" y="1191.2" textLength="12.2" clip-path="url(#terminal-2221940128-line-48)">
</text><text class="terminal-2221940128-r14" x="0" y="1215.6" textLength="36.6" clip-path="url(#terminal-2221940128-line-49)">&#160;A&#160;</text><text class="terminal-2221940128-r15" x="36.6" y="1215.6" textLength="207.4" clip-path="url(#terminal-2221940128-line-49)">&#160;Add&#160;MailingList&#160;</text><text class="terminal-2221940128-r14" x="244" y="1215.6" textLength="36.6" clip-path="url(#terminal-2221940128-line-49)">&#160;D&#160;</text><text class="terminal-2221940128-r15" x="280.6" y="1215.6" textLength="219.6" clip-path="url(#terminal-2221940128-line-49)">&#160;Toggle&#160;Dark&#160;mode&#160;</text><text class="terminal-2221940128-r14" x="500.2" y="1215.6" textLength="36.6" clip-path="url(#terminal-2221940128-line-49)">&#160;S&#160;</text><text class="terminal-2221940128-r15" x="536.8" y="1215.6" textLength="146.4" clip-path="url(#terminal-2221940128-line-49)">&#160;Screenshot&#160;</text><text class="terminal-2221940128-r14" x="683.2" y="1215.6" textLength="36.6" clip-path="url(#terminal-2221940128-line-49)">&#160;Q&#160;</text><text class="terminal-2221940128-r15" x="719.8" y="1215.6" textLength="73.2" clip-path="url(#terminal-2221940128-line-49)">&#160;Quit&#160;</text><text class="terminal-2221940128-r14" x="793" y="1215.6" textLength="61" clip-path="url(#terminal-2221940128-line-49)">&#160;ESC&#160;</text><text class="terminal-2221940128-r15" x="854" y="1215.6" textLength="146.4" clip-path="url(#terminal-2221940128-line-49)">&#160;Pop&#160;screen&#160;</text>
    </g>
    </g>
</svg>
